<svg width="36" height="24" fill="none" xmlns="http://www.w3.org/2000/svg"><path d="M15.98 12.2v10.635c-1.71.28-3.295.42-4.755.42-3.76 0-6.57-.905-8.43-2.715-1.86-1.82-2.79-4.695-2.79-8.625 0-3.9.935-6.775 2.805-8.625C4.68 1.44 7.415.515 11.015.515c1.63 0 3.12.185 4.47.555v3.765c-1.38-.36-2.715-.54-4.005-.54-1.6 0-2.895.24-3.885.72-.99.48-1.73 1.28-2.22 2.4-.48 1.12-.72 2.64-.72 4.56 0 1.84.23 3.315.69 4.425.46 1.1 1.135 1.89 2.025 2.37.89.48 2.02.72 3.39.72.24 0 .6-.01 1.08-.03V12.2h4.14ZM19.078 23V.8h4.455v8.805h7.635V.8h4.44V23h-4.44v-9.315h-7.635V23h-4.455Z" fill="#0070C0"/></svg>