<svg version="1.0" xmlns="http://www.w3.org/2000/svg" width="1365.333" height="1365.333" viewBox="0 0 1024 1024"><g fill="#021cb0"><path d="M481.6 110.1c-24.8 2.5-57.6 9.1-74.9 15.1-44.5 15.2-91.8 42.9-125.7 73.8-41.7 37.9-66.3 70.1-88.9 116-24 48.7-37.3 98.7-41.2 155.1-1.2 17.5 0 48 2.6 66.9 6.7 48.4 20.8 91.9 42 130.3 7.6 13.6 25 40 32.4 49.2 3.1 3.8 8.6 10.6 12.1 14.9 27.1 33.5 70 68.9 111.3 92 43.7 24.4 93.1 39.8 143.2 44.6 23.8 2.3 59.5.8 85-3.6C605.7 860 645.8 848 668 838c31.9-14.4 72.5-40.6 100.5-64.9 19-16.5 47.7-50.4 62-73.3 22.6-36.1 38.7-74 49-114.6 7.8-31.1 10.6-54.5 10.6-89.7.1-41.8-2.9-64.2-13.7-102-10.2-36-29-77.7-48.7-107.7-3-4.6-5.9-9.3-6.5-10.4-1.4-2.6-18.8-25.8-25-33.4-2.5-3-10.5-11.5-17.6-18.8-24.2-24.7-45.7-42.2-73.6-59.8-43.5-27.4-89.8-44.2-144-52-12.6-1.8-66.1-2.7-79.4-1.3zm68.4 24.4c33.6 3.8 60.2 10.2 90 21.8 16 6.2 31.6 13.7 41.8 20 4.8 3 9.4 5.6 10.2 5.9.8.4-1.9.6-6 .6-9.1-.1-11.7.4-23.7 4.3-9.4 3.1-17 7.5-25.8 14.8-6 5-13.9 7.7-26.8 9.1-22.2 2.5-27.1 5.1-30 15.7-3.2 11.2-1.5 21.3 4.8 29.7 4 5.1 7.8 7.4 17.9 10.6 13.4 4.4 22.6-.7 22.6-12.4 0-3.4 0-3.5 3.2-2.5 1.8.5 5.5.9 8.2.9 4.4 0 5.3-.4 9.1-4.3 5.1-5.1 7-10.8 6.1-18.5-1.1-9.4 3.9-16.2 15.9-21.8 23-10.6 44.1-4.4 57.9 17 6.3 9.7 17 19.9 24.5 23.4 4 1.8 7.7 2.6 14.3 3 8 .4 9.5.9 13.6 3.6 8.5 5.7 24.4 26.8 29.6 39.4 1.5 3.5 3.6 11.2 4.6 17 1.1 5.9 3.7 16.7 6 24.1 5.4 18.2 6.9 26.2 7.6 40.4.7 12.9-.9 25.2-5.8 46.7l-2.2 9.5-1.4-5c-.8-2.8-1.5-6.2-1.5-7.7s-.3-2.5-.7-2.3c-.4.2-2.2-4.9-4-11.5-5.7-21-10.3-28-18.2-28-3.2 0-4.6.6-6.9 3.1-4.4 4.7-4.3 8.1.7 26 1.9 7 4.6 17.7 5.9 23.9 2.6 12.4 6.1 19 13.8 25.5l3.9 3.4-.7 6.8c-1.8 17.9-5.8 32.9-13.1 50-8.2 18.9-9.4 22.5-11.9 35-2 10.4-6 21.4-8.4 23.3-.3.3-.7 1-.8 1.6-.1.7-1.5 3.4-3.1 6-6.7 11.7-9.7 23.4-7.3 29.1 1.6 3.9 7.4 7.6 13 8.3 4.2.5 4.8.4 4.4-1.1-.7-2.4 3.3-10.7 9.4-20.1 2.8-4.3 6-9.7 7.2-12 2.8-5.9 6.7-20.9 8.7-33.6 1.6-10.6 3.1-14.6 9.8-27.2 4.6-8.4 12.9-42.2 15.1-61 2-16.8 3.3-22.5 9-39.4 4.7-13.8 6.3-23.2 6.7-38.1.1-8.7 1.1 13.4 2.3 53.5.9 30.6.9 30.6 9.2 29.7 3-.3 6.3-1.3 7.3-2.2 1.8-1.6 1.9-1.5 2.6 2 1.2 6.6-.3 56.1-2.1 67.5-3.6 23.3-12.6 59.4-18.7 75-2.2 5.8-5.3 13.9-6.8 18-5.6 15.3-18.9 40.6-30.8 59-14.9 23-49.7 59.2-74.2 77.4-21.2 15.7-53.8 34.4-74.5 42.6-37.8 15.1-60.5 21.4-94 25.9-26 3.5-43.2 4.4-62.8 3.2-39.9-2.5-67.8-8.8-108.7-24.8-23-9-55.5-27-79.2-44-25-17.8-57.1-49.8-76-75.3-30.9-42-50-84.1-60.7-134-4.7-21.7-6.3-36.6-6.8-65.2-.7-36.6 1.9-63 9.2-92.7 3.3-13.5 5.5-20.1 15.2-47.3l3.9-10.7 3.9 11.2c5 14.4 9.2 23.7 18.9 42.2 8.9 17 12 21.9 18.5 29.1 2.5 2.8 6.6 7.6 9.1 10.8 5.6 7 15.5 14.6 24.6 18.7 3.8 1.7 9.6 4.3 12.9 5.7 8 3.6 14.1 8.4 26.1 20.2 6.7 6.6 11.3 12.1 13.5 16.3l3.4 6.2.7 29c.4 19.9 1.1 31.1 2.1 35.6 3 13.1 10.2 25.8 25.2 44.3 13.1 16.2 16.5 20.7 20.8 28.1 5.5 9.4 8 16.5 12.2 35.2 2 8.7 4.5 19.4 5.6 23.8 4.3 17.1 14 36.7 24.5 49.6 11.9 14.5 41.3 41 51.2 46.1 8 4.1 19.4 1.2 22.7-5.8 2.7-5.8 1.6-12.1-4.6-24.8-4.9-10.1-5.3-11.4-5.7-19.6-.7-14.7 2.1-24.7 12.9-46.3 12-23.8 14.7-33.2 17.4-59.7 2.6-25.7 2.8-26.4 11.1-49 6.3-17.3 7.9-24.8 7.1-34-.7-8.1-3-13-8.9-18.6-5.4-5.2-11.2-8.1-25.6-12.8-12.1-3.9-22.8-9.7-28.8-15.5-2.1-2-9.5-11.3-16.6-20.8-13.9-18.7-21-25.4-34-31.9-9.7-4.9-17.2-6.4-32.3-6.4-11.5 0-14.1.3-24 3.1-10.2 2.9-11.5 3.1-17.8 2.1-3.7-.6-7.5-1.6-8.4-2.3-2.6-2.2-6.1-8.4-9.3-16.4-7-17.6-13.3-22.4-27.8-21.2-6.7.5-11.2 3.1-15.5 8.9-1.8 2.4-1.8 2.7-.2 5.8.9 1.7 1.5 3.3 1.3 3.5-.2.1-3 .6-6.4 1l-6.1.7-2-4.9c-4.7-11-5.6-15.3-5-23.7 1.3-19.5 12.8-38.2 26.1-42.1 6.2-1.9 6.3-1.9 14.9.2 5.5 1.3 6.6 1.9 4.7 2.3-5.3 1.2-7.8 12.8-4.5 20.7 2.1 4.9 3.9 6.9 10.3 11 8.9 5.7 15.1 7.4 29.7 8 19.7.8 24.2-1.6 23.1-12.1-1.1-9.9-5.4-12.1-21.4-11l-9.7.7-3.3-11c-4.3-14.5-4.9-20-2.8-25.3 2.2-5.5 7.7-13.3 18.1-25.5 4.7-5.5 10.1-13 12-16.6 1.9-3.7 4-7.1 4.7-7.6.7-.6 11.2-6.1 23.3-12.3 12.1-6.1 24.3-12.9 27.2-15.1 18.7-14.5 24.2-41.4 11-53.6-5.3-4.9-15.2-10.8-20.9-12.4-7.7-2.2-6.4-2.9 5.6-2.9 12.8 0 16.3-1 20.7-5.6 2.1-2.2 2.4-3.5 2.3-9.7 0-4-.2-8-.5-8.9-.4-1.6 3-1.7 47.2-2.2 52.2-.5 52.8-.5 55-6.4 1.7-4.3.5-11.1-2.5-14.1l-2.6-2.6-41.8-.3c-44.8-.3-57.2.4-74.4 4.3-11.2 2.5-29.8 10.3-41.2 17.3-6.8 4.2-6.9 4.2-16.5 4.2-9.7 0-14.1-.6-14.1-2 0-.9 31.2-17.2 31.8-16.6.2.3-.5 1.7-1.6 3.3-1 1.5-2.3 3.9-2.6 5.3-.4 1.4-1 3.4-1.3 4.4-.4 1.6.2 1.4 3.5-1.2 2.2-1.8 8.6-5.2 14.2-7.7 13.4-5.8 18-8.8 18-11.9 0-3.5 1-5.6 2.6-5.6.8 0 4-.9 7.2-1.9 11.2-3.8 45.8-10 66.7-12 15.2-1.4 48.9-1.2 63.5.4zm-128 45.4c0 1.1-15.4 2.8-18.5 2.1-1.2-.3 11.9-2.7 15.8-2.9 1.5 0 2.7.3 2.7.8zm-88.1 8.2c-1.5 2.9-.3 8.1 2.4 10.7 3.3 3.1 7.1 4.2 14.2 4.2 5.4 0 23.8-2.9 29.8-4.6 1.6-.5 1.7-.1 1.1 4.3-1.4 10.6 2.5 16.1 17.9 25.3 10.5 6.2 13.4 9.1 14.2 14.2.9 5.2-.9 10.1-5.1 13.8-2 1.7-11.7 7.2-21.7 12.2-21 10.5-27.4 14.3-33.7 20.2-2.5 2.4-6 4.9-7.8 5.6-2.9 1.1-9.2 7.1-9.2 8.8 0 .4-.7 4.1-1.6 8.2-3.5 16.9-13 24.5-36.7 29.6-3.8.8-8.9 1.4-11.5 1.4-13.6.1-32.9 7.8-41.1 16.4-2.6 2.9-5 5.8-5.3 6.6-.3.8-.7 1.3-.9 1-2.8-3.3-15.6-40.9-16.4-48-.4-3-1.1-6.8-1.5-8.3-.8-2.3-.4-3.9 1.7-8 5.2-10.4 22.1-33.6 31.2-43 5.3-5.5 6.2-5.9 17.6-9.6 15-4.9 28.8-7.1 44.1-7.1 9.8 0 12.5-.3 16-2.1 7.2-3.4 10.6-12.3 6.9-17.6-2.5-3.6-7.8-4.6-19.1-4l-10.2.7-3.6-3.6c-2.8-2.8-4.2-3.5-6.2-3.1l-2.6.5 2.8-2.4c8.4-7 15.2-12 24.5-17.8 5.7-3.6 10.5-6.6 10.7-6.6.1 0-.2.9-.9 2.1zm70.2 288.3c3.7.8 8.4 2.3 10.5 3.4 5.8 3 14.4 12.4 21.7 23.9 8.2 12.8 19.7 24.9 30.1 31.7 10.6 7 14.6 9 25.3 12.5 11.5 3.8 14.3 5.1 17.1 7.5 3.3 3 3 9.1-1.2 19-10.6 24.9-12.8 32.8-14.6 52.6-3.2 36.7-3.1 36.3-14.4 59-15.1 30.4-17.3 38.5-16.2 58.5.9 14.8 1 15.8 2.1 17.5.5.8-1 .1-3.3-1.6-2.3-1.6-4.2-3.5-4.2-4.2 0-.6-.6-1.1-1.2-1-.7.2-1.2-.3-1-1 .1-.8-.2-1.1-.9-.7-.6.4-2.4-.6-4.1-2.1-6.7-6.5-19.8-26.9-19.8-31 0-.9-.4-1.2-1-.9-.6.3-.7-.1-.4-.9.3-.9.1-1.6-.4-1.6-.9 0-1.8-1.6-2.9-5.5-4.7-16.8-6.6-24.3-8.8-35.5-5.3-27.2-12.2-43.5-24.1-57-14.3-16.1-23.6-28.4-27.8-36.9-8.1-16-10.9-33.6-8.7-54.6 1.9-17.3 5.1-27.3 12.5-39 7.6-11.9 18.8-15.6 35.7-12.1z"/><path d="M445.9 185.5c-1.4.8-3.2 2.8-3.9 4.5-2.2 5.3 1.5 10.6 10.7 15.4 6.9 3.5 24.3 3 32.8-1 7.3-3.5 10.8-12.7 6.9-18.2-1.5-2.2-1.9-2.2-22.7-2.2-16.4.1-21.8.4-23.8 1.5zM630.5 274.7c-1.1.2-6.1 1.8-11.2 3.4-14.4 4.7-24 11.9-27.3 20.4-3.4 8.8-2.9 22.6 1 30.8 1.9 4 2 4.1.1 6.1-6 6.8-16.2 25.2-20.6 37.4-4 11-8.3 30.2-9.5 42.7-1.8 16.7-.8 43.7 1.8 53.6 5.6 20.9 19.3 35.1 39.2 40.5 5.4 1.5 10.7 1.8 30.5 1.9 26.9 0 26.6 0 34.4 7.5 5.5 5.4 9.7 14.4 12.2 26.2 2.8 13.7 4.2 48.2 2.9 73.7-1.5 31.7-3.9 50.5-9.5 75.6-5.3 23.7-6.1 30.9-4.2 37.6 2 6.9 8.1 13.5 13.3 14.5 6.8 1.3 9.9-.1 25.1-11.2 37.9-27.5 72.1-58.1 77.9-69.5 5-10 6.6-21 4-27.4-1.4-3.4-1.7-3.5-6.7-3.5-4.6 0-5.5.4-8.3 3.3-1.7 1.8-4.9 6.6-7.1 10.7-8.2 15.1-32 38-59 57-4.9 3.5-10.3 7.4-11.8 8.7-1.6 1.3-3.2 2.3-3.6 2.3-.9 0 2.9-18.8 5.5-27.5 2.1-7.1 7-36.5 8.9-52.5 1.8-15.9 2-53.3.4-71.3-3.8-43.9-15.7-65.1-42.3-75.5-3.4-1.3-8.7-1.6-31.1-1.6-24.1-.1-27.5-.3-31.3-2-12.6-5.5-19.1-24.3-17.9-51.5 1-23.1 6.5-45.6 15.6-64.2 10-20.2 20.5-30.9 35.5-35.9 12.7-4.3 16.8-8.9 14.6-16.3-.6-2.2-2.5-5.4-4.1-7-3.4-3.3-2.1-3.3-23.9-.3-5.2.7-9.7 1.2-9.9 1-1-.8 5.9-5.6 16.3-11.3 10.2-5.6 11.8-6.9 13.6-10.6 1.1-2.3 2-5.1 2-6.3 0-7.4-6.7-11.5-15.5-9.5zM665.3 295.2c-5.5 1.4-8.8 8.6-6.7 14.3.8 1.9 8.2 5.8 14.4 7.3 5.2 1.4 29.3 6.6 56 12.2 25.1 5.2 27.7 5.3 31.5 1.3 5.1-5.5 2-14.8-5.8-17.7-2.3-.9-14.8-3.6-27.7-6.2-12.9-2.5-29.1-5.9-35.9-7.5-16.5-3.9-22-4.7-25.8-3.7zM690.6 340c-6.6 2-8.5 7.5-4.6 13.7 3.3 5.5 7.8 7 41 13.8 9.6 2 24.2 5.2 32.3 7.2 15.8 3.8 20.2 3.8 23.8.2 3.9-3.9 1.5-14.5-4-17.4-1.7-.8-6.6-2.2-10.8-3-4.3-.8-15.2-3-24.3-5-25.3-5.4-49.4-10.5-50-10.4-.3 0-1.8.5-3.4.9z"/></g></svg>