<svg width="234" height="24" fill="none" xmlns="http://www.w3.org/2000/svg"><path d="M19.85 12.2v10.5c-1.12.18-2.15.31-3.09.39-.93.08-1.9.12-2.91.12-4.34 0-7.605-.94-9.795-2.82-2.19-1.89-3.29-4.7-3.3-8.43 0-2.51.51-4.615 1.53-6.315 1.02-1.71 2.48-2.99 4.38-3.84 1.91-.86 4.19-1.29 6.84-1.29 1.83 0 3.71.23 5.64.69V4.01c-1.84-.45-3.635-.675-5.385-.675-3.06.01-5.405.715-7.035 2.115-1.62 1.39-2.43 3.55-2.43 6.48 0 5.65 3.13 8.475 9.39 8.475 1.07 0 2.055-.045 2.955-.135V12.2h3.21ZM25.241 23V.8h3.39v19.455h12.21V23h-15.6Zm27.846.285c-2.23 0-4.17-.425-5.82-1.275-1.64-.85-2.91-2.125-3.81-3.825-.89-1.7-1.335-3.795-1.335-6.285s.45-4.585 1.35-6.285c.91-1.7 2.185-2.975 3.825-3.825 1.64-.85 3.57-1.275 5.79-1.275 2.24 0 4.18.425 5.82 1.275 1.64.85 2.905 2.13 3.795 3.84.9 1.7 1.35 3.79 1.35 6.27 0 2.48-.455 4.57-1.365 6.27-.9 1.7-2.17 2.98-3.81 3.84-1.64.85-3.57 1.275-5.79 1.275Zm0-2.775c2.37 0 4.21-.695 5.52-2.085 1.31-1.4 1.965-3.545 1.965-6.435 0-2.96-.66-5.15-1.98-6.57-1.31-1.42-3.145-2.13-5.505-2.13-2.35 0-4.185.7-5.505 2.1-1.32 1.39-1.98 3.53-1.98 6.42 0 2.98.655 5.175 1.965 6.585 1.31 1.41 3.15 2.115 5.52 2.115Zm28.16-8.955c1.5.26 2.635.845 3.405 1.755.78.91 1.17 2.08 1.17 3.51 0 1.4-.355 2.57-1.065 3.51-.7.94-1.85 1.655-3.45 2.145s-3.72.735-6.36.735c-2.1 0-4.235-.14-6.405-.42V1.325c2.34-.51 4.75-.765 7.23-.765 3.27 0 5.655.505 7.155 1.515 1.51 1.01 2.265 2.525 2.265 4.545 0 1.25-.335 2.305-1.005 3.165-.67.86-1.65 1.45-2.94 1.77ZM76.102 3.02c-1.52 0-2.93.125-4.23.375v6.975h4.89c1.8 0 3.12-.29 3.96-.87.85-.59 1.275-1.51 1.275-2.76 0-.88-.2-1.59-.6-2.13-.39-.55-1.015-.95-1.875-1.2-.86-.26-2-.39-3.42-.39Zm-.375 17.715c1.77 0 3.16-.15 4.17-.45 1.02-.3 1.74-.74 2.16-1.32.42-.58.63-1.335.63-2.265 0-1.33-.445-2.3-1.335-2.91-.89-.61-2.3-.915-4.23-.915h-5.25v7.62c1.12.16 2.405.24 3.855.24ZM106.524 23l-2.64-6.795H93.519L90.879 23h-3.36L96.323.8h4.801l8.805 22.2h-3.405Zm-11.97-9.435h8.295l-4.14-10.65-4.156 10.65ZM113.22 23V.8h3.39v9.345h12.645V.8h3.39V23h-3.39v-9.9H116.61V23h-3.39Zm34.397.285c-3.3 0-5.73-.78-7.29-2.34-1.55-1.57-2.325-3.965-2.325-7.185V.8h3.405v13.275c0 2.23.505 3.855 1.515 4.875 1.01 1.02 2.575 1.53 4.695 1.53s3.685-.51 4.695-1.53c1.01-1.02 1.515-2.645 1.515-4.875V.8h3.33v12.96c0 3.22-.775 5.615-2.325 7.185-1.54 1.56-3.945 2.34-7.215 2.34Zm27.644-11.73c1.5.26 2.635.845 3.405 1.755.78.91 1.17 2.08 1.17 3.51 0 1.4-.355 2.57-1.065 3.51-.7.94-1.85 1.655-3.45 2.145s-3.72.735-6.36.735c-2.1 0-4.235-.14-6.405-.42V1.325c2.34-.51 4.75-.765 7.23-.765 3.27 0 5.655.505 7.155 1.515 1.51 1.01 2.265 2.525 2.265 4.545 0 1.25-.335 2.305-1.005 3.165-.67.86-1.65 1.45-2.94 1.77Zm-5.145-8.535c-1.52 0-2.93.125-4.23.375v6.975h4.89c1.8 0 3.12-.29 3.96-.87.85-.59 1.275-1.51 1.275-2.76 0-.88-.2-1.59-.6-2.13-.39-.55-1.015-.95-1.875-1.2-.86-.26-2-.39-3.42-.39Zm-.375 17.715c1.77 0 3.16-.15 4.17-.45 1.02-.3 1.74-.74 2.16-1.32.42-.58.63-1.335.63-2.265 0-1.33-.445-2.3-1.335-2.91-.89-.61-2.3-.915-4.23-.915h-5.25v7.62c1.12.16 2.405.24 3.855.24ZM208.975 23l-2.64-6.795H195.97L193.33 23h-3.36L198.775.8h4.8L212.38 23h-3.405Zm-11.97-9.435h8.295l-4.14-10.65-4.155 10.65Zm36.243-1.365v10.5c-1.12.18-2.15.31-3.09.39-.93.08-1.9.12-2.91.12-4.34 0-7.605-.94-9.795-2.82-2.19-1.89-3.29-4.7-3.3-8.43 0-2.51.51-4.615 1.53-6.315 1.02-1.71 2.48-2.99 4.38-3.84 1.91-.86 4.19-1.29 6.84-1.29 1.83 0 3.71.23 5.64.69V4.01c-1.84-.45-3.635-.675-5.385-.675-3.06.01-5.405.715-7.035 2.115-1.62 1.39-2.43 3.55-2.43 6.48 0 5.65 3.13 8.475 9.39 8.475 1.07 0 2.055-.045 2.955-.135V12.2h3.21Z" fill="#007bdf"/></svg>