<svg version="1.0" xmlns="http://www.w3.org/2000/svg" width="1365.333" height="1365.333" viewBox="0 0 1024 1024"><g fill="#021cb0"><path d="M184 191.9c-4.7.4-9.8 1.4-11.5 2.2-13.9 7.3-15.5 8.4-15.5 10.9 0 .9-.9 2.5-2.1 3.6-2.5 2.2-4.9 6.7-5.3 9.8-.2 1.1-.6 2.8-.9 3.6-1.8 4.6-2.7 10.4-2.7 17.1 0 4.2-.3 7.9-.7 8.3-1 1-.4 406.7.6 408 .4.6 1.3 4.4 2 8.5.6 4.1 1.5 7.9 1.9 8.5.3.6.8 2 .9 3.1.2 1.1 1.2 3.2 2.3 4.7 1.1 1.5 2 3.1 2 3.6 0 2.4 16.8 17.9 22.6 21 4.9 2.6 18.7 4.1 39.5 4.4l21.5.3 3.2-2.7c1.8-1.5 4.1-2.9 5.2-3.3 1.6-.5 2-1.5 2-5.2 0-2.5-.8-5.8-1.7-7.4l-1.7-2.9H226c-20.8 0-31.8-1.1-33.1-3.2-.5-.7-.9-1-.9-.6 0 .8-6.5-1.8-8.8-3.5-.8-.7-3.7-3.4-6.4-6.1-5.3-5.5-7.8-11.9-7.8-20 0-2.5-.5-4.6-1-4.6-.7 0-.9-68.9-.8-211.8l.3-211.7 4.7-6c6-7.9 7.5-9.2 9-7.7 1.7 1.7 124.6 1.7 128.1.1 3.1-1.4 4.7-4.8 4.7-9.9 0-3-.8-4.8-3.1-7.5l-3.1-3.5-56.5.1c-31 .1-56.7-.2-57-.5-.4-.3-.9-.5-1.2-.4-.3 0-4.4.4-9.1.7zM354.5 193c-4.6 1.8-6.5 4.8-6.5 10.5 0 4.2.5 6 2.3 8l2.2 2.5h514.6l3-2.1c2.6-1.8 2.9-2.6 2.9-7.8 0-6-1.3-8.2-6.7-11-2.5-1.3-508.5-1.4-511.8-.1z"/><path d="m352.3 231-163.3.5-2.5 2.7-2.5 2.7v370l2.3 1.3c3.2 1.9 665.7 2.4 666.9.5.4-.6.8-39.6.8-86.5 0-94 .4-88.4-6.1-91.8-4.2-2.1-6-1.7-10.6 2.4l-4.3 3.7-.2 75.7-.3 75.7-312.1.1H208.2l-.7-63.7c-.8-62.8-.3-269.9.6-270.8.4-.4 434.1-.9 564.1-.6l60.7.1-.1 66c-.1 59.6.1 66.1 1.6 68.4.9 1.4 2.5 3 3.6 3.6 2.2 1.2 6.4.4 5.5-1-.3-.5.4-1.4 1.5-2 1.1-.6 2-1.7 2-2.4 0-.8.6-1.9 1.4-2.5.8-.7 2.4-3.2 3.5-5.6 2.1-4.4 2.1-5.6 2.1-72.8v-68.3l-2.9-2.9-3-2.8-166.3-.1c-91.5 0-239.8.1-329.5.4zM876.5 244.5c-2.2.8-4.1 1.5-4.2 1.5-1.7.1-2.1 15.9-1.9 73.2.2 49.1.5 66.9 1.4 68.5 1.9 3.5 5.3 5.3 9.9 5.3 5.3 0 10.8-4.4 12.2-9.8 1.5-5.6.9-131-.6-134.3-1.2-2.8-6.8-5.9-10.5-5.9-1.2.1-4.1.7-6.3 1.5z"/><path d="M880.3 423.7c-1.2.2-4.1 2.3-6.4 4.5l-4.2 4.1.3 111.1c.4 119 .5 116.1-4.5 125.6-2.7 5.1-9.3 12.7-13.1 14.9-5.2 3.1-10.4 3.6-41.9 3.9-11.9.2-13.2.4-15.8 2.5-2.2 1.7-3 3.3-3.4 6.7-.6 6.2 2.1 10.5 7.4 11.5 4.8.9 43.6.6 44.3-.3.3-.4 2.6-.8 5.2-.9 5.3-.3 18.8-6.1 18.8-8.1 0-.6.4-1.1.9-1 1.4.4 7.1-3.5 7.1-4.7 0-.6 1.3-1.9 3-2.8 1.7-1.1 2.7-2.3 2.4-3.1-.3-.8.3-1.7 1.3-2 2.2-.7 8.5-13.6 11-22.6 1.6-6.1 1.7-13.8 1.5-117-.1-60.8-.2-111.5-.2-112.8 0-1.2-1.5-3.8-3.2-5.7-3.3-3.5-6.5-4.6-10.5-3.8zM311.5 640.4c-.5 3.1-1.6 5.2-4 7.5l-3.3 3.1h-51.1c-37.1 0-51.1-.3-51.1-1.1 0-1.7-2.9 1-4.6 4.2-2.6 5.1-1.8 8.2 3.1 12.8l4.4 4.1 53.6-.1c51.8 0 53.5-.1 54.5-2 .6-1 2-1.9 3.1-1.9 1.2 0 3.6-1.5 5.5-3.4 3-3 3.4-4 3.4-8.6 0-6.3-2.7-11.6-8.1-16-2.1-1.6-4-3-4.3-3-.3 0-.8 2-1.1 4.4zM406.1 652.5c-4.4 5.1-4.4 10.9.2 15.2l3.2 3.1 49.5.5c27.2.3 54.2.2 60-.3 10.3-.8 10.5-.9 13.7-4.4 1.8-2 3.3-4.5 3.3-5.6 0-2.6-2.4-8.5-3.9-9.4-.5-.4-27.8-.6-60.5-.6-39.2 0-59.7-.3-60.1-1-1-1.7-2.2-1.2-5.4 2.5zM565.5 649.8c-2.7 1.9-5.5 6.8-5.5 9.6 0 3.7 3 9 6.1 10.6 1.4.8 6.2 1.1 14 .9l11.8-.4 3.5-3.4c4.2-4.1 4.7-7.8 1.6-12.8l-1.9-3.2-12.8-.3c-7-.2-13.5-.7-14.3-1.1-.8-.4-2-.3-2.5.1zM339.7 690.4c-3.5 3.2-4.5 9-2.3 13 3.1 5.9 2.7 5.8 43.7 6.4l37.6.5.7 8.1c.9 11.6.7 44.9-.2 46.4-.7 1-9.8 1.3-42.8 1.3-44.7.1-45.4.1-48.8 5.1-2.4 3.4-2.1 12 .5 14.4 2 1.8 6.8 1.9 152.7 2 82.9.1 172.7.2 199.5.3l48.8.1-.3 8.2-.3 8.3-213.8.2c-150.9.2-214.3.6-215.8 1.3-6.8 3.7-2.9 18.5 5.4 20.5 1.2.3 98.5.4 216.2.3l214-.3 4-2.2c2.2-1.1 5.2-3.4 6.6-5 3-3.2 7-10.6 7.4-13.7.1-1.2.5-3.6.9-5.3 1.7-7.6-5.5-24.6-11.9-28.1-1.6-1-3.4-2.3-3.8-3-.4-.6-1.7-1.2-2.7-1.2-1 0-2.2-.5-2.5-1-.4-.6-19.6-1-54.3-1h-53.8l-.2-28.5-.3-28.5h18c19.2 0 22.1-.6 24-4.7 1.8-4 1.4-10.7-1-13.7l-2-2.6H633c-26.2 0-29.9.2-30.4 1.6-.3.9-.6 18.4-.6 39V766l-17.2.2c-9.5.1-45.8.2-80.5.2l-63.3.1V688H342.3l-2.6 2.4z"/></g></svg>