<svg version="1.0" xmlns="http://www.w3.org/2000/svg" width="1365.333" height="1365.333" viewBox="0 0 1024 1024"><path d="M602.5 182c-3.3.5-8.5 1.8-11.6 2.9-7.2 2.7-18.5 9.6-18.1 11.1.1.6-.2.9-.7.6-.5-.3-2.1.4-3.5 1.5-2.1 1.7-2.4 2.4-1.5 3.5.9 1.2.9 1.3-.3.9-1.3-.5-6.8 5.1-6.8 7 0 .4-.9 1.9-2.1 3.3-1.4 1.8-1.8 3.4-1.4 5.2.4 1.8.3 2.1-.4 1-.8-1.1-1.2-.9-2.1 1.5-4.7 11.9-6.3 26.1-5 42.5 1.2 14.9 2.3 20.3 5.8 29.4l3 7.5-130.7.4c-144 .4-131.6-.1-160.1 6.8-19.2 4.7-46.9 15.7-45.4 18 .4.8.3.9-.4.5-.6-.4-2.6.1-4.4 1-4.5 2.3-15.1 9.5-16 10.8-.4.6-.8.7-.8.2 0-.5-.7-.3-1.5.4s-1.2 1.7-.8 2.3c.3.5.2.7-.4.4-1.9-1.2-16.1 12.4-26.6 25.5-5 6.2-13.2 20.5-17.4 30.2-4.7 11-9.9 31.9-11.2 45.1-1.5 15.5-1.6 208.2-.1 219 1.7 12.1 5.8 29.8 9.2 39.4 3.2 9.3 12.7 28.1 19 37.5 14.7 22.1 36.6 42.3 59.1 54.4 19.7 10.6 36.8 14.2 68.4 14.2 14.7 0 18.3.3 17.5 1.2-1.1 1.5-11.1 18.9-25.6 44.8-5.4 9.6-11.8 20.9-14.2 25-9 15.7-10.3 21.2-6.5 27.4 2.3 3.6 7.4 6.6 11.3 6.6 2.6 0 9.7-3.1 13.6-5.9 5.9-4.2 92.2-51.9 160.7-88.8 12.7-6.8 23.4-13 23.9-13.7.7-.9 1.7-.8 5 .8 4.1 2.1 4.7 2.1 171.1 2.4 184.7.3 175.6.5 193.5-6.2 34.6-13 63.1-40.1 78.9-75 2.9-6.3 6.4-15.9 7.9-21.3l2.6-9.8.4-114.5c.3-116.3 0-130.5-3.4-151-3.2-19.2-9.1-36.1-18.6-53.5-5.1-9.5-18.2-27.6-24.1-33.5l-3.5-3.5 6.7-3.6c8.6-4.7 12.3-9.7 12.9-17.6.3-4.8 0-6.4-2-9.2-1.3-1.9-3.8-4.4-5.7-5.4-3.2-2-5.8-2-116-1.8l-112.6.2-6.1 2.8c-7.6 3.5-17.3 10.1-32.4 21.7-6.3 4.9-13.2 10.1-15.2 11.6l-3.6 2.7-12.8-14.7c-13.6-15.5-26.7-33.2-30.6-41-2-4.1-2.3-6.2-2.2-15.7 0-10 .4-12 3.7-22 5-14.5 9.8-24.6 11.5-24 .8.3 63.6.5 139.6.5h138.3l4.1 8.7c2.3 4.9 4.5 10.3 4.8 12l.7 3.3h14.9l-.7-6.3c-1.1-10.2-3.3-17.6-7.7-25.6-7.5-13.7-20.2-24.5-34.8-29.9l-7.5-2.7-113.5-.1c-62.4-.1-116.2.2-119.5.6zm-21.9 154.2c1.2 3.9 11.5 20.2 15.2 24.1 5.6 5.9 10.6 8.1 18.2 8.2 12.3 0 23.8-8 35-24.5 2.1-3.2 4.7-6.5 5.6-7.5 1.6-1.5 8.7-1.7 98.3-1.4l96.6.2 6.5 3.3c13.1 6.5 21.3 14.8 31.6 32.2 10.3 17.2 16.5 35.5 19.4 57 .7 5.6 1.1 43.4 1.2 119.5.1 101.6-.1 112.1-1.7 121.7-2 12.1-5 21.3-10.8 32.5-14.2 27.5-41.3 50.7-70.7 60.7-16.7 5.6-21.5 5.7-201.1 5.7H461.6l-10.1 5.2c-5.5 2.8-14.7 7.7-20.5 10.9-5.8 3.1-13.2 7.2-16.5 9-3.3 1.8-16.3 8.9-28.9 15.8-12.7 6.8-24.6 13.1-26.5 13.9-2 .9-5.5 2.8-7.8 4.3l-4.1 2.8 3-5.1c1.7-2.9 6.1-9.7 9.8-15.2 6.6-9.8 15.6-23.3 23.2-34.9 2.1-3.2 3.6-6.1 3.3-6.5-.4-.3-28.6-.6-62.8-.7-60.6 0-62.4-.1-70-2.2-15.5-4.3-36.9-17.3-48.3-29.3-18.3-19.5-31-44.2-35.6-69.7l-2.3-12.7v-109c0-119.7-.1-118.5 6.1-135.7 3.1-8.6 9.1-21 12.8-26.4 1.4-2 2.2-4.2 1.9-4.7-.3-.6-.1-.7.5-.3 1.2.7 5.5-4.8 4.4-5.8-.4-.4-.2-.6.4-.4.6.2 4.5-3.2 8.7-7.5 4.2-4.2 8-7.7 8.3-7.7.4 0 2.7-1.5 5.3-3.3 8.3-6 20.4-11.9 30.1-14.5l9.5-2.7 161-.5c88.6-.3 161.5-.6 162.2-.8.6-.1 1.5.8 1.9 2z" fill="#021cb0"/></svg>